<?xml version="1.0" encoding="UTF-8"?>
<svg width="465px" height="220px" viewBox="0 0 465 220" version="1.1" xmlns="http://www.w3.org/2000/svg" xmlns:xlink="http://www.w3.org/1999/xlink">
    <!-- Generator: Sketch 48.1 (47250) - http://www.bohemiancoding.com/sketch -->
    <title>Slice</title>
    <desc>Created with Sketch.</desc>
    <defs></defs>
    <g id="Page-1" stroke="none" stroke-width="1" fill="none" fill-rule="evenodd">
        <g id="Group" transform="translate(9.000000, 8.000000)" stroke="#5C7893" stroke-width="10">
            <path d="M447.378906,202.714844 L0.3125,202.714844 L11.9101563,141.027344 L40.613831,141.027344 C44.3731877,114.236698 46.7368201,99.8499794 47.7047282,97.8671875 C49.1565903,94.8929996 52.2667228,139.971871 58.6640625,126.023438 C65.0614022,112.075004 69.5521612,0.255568926 71.3415909,0.255568926 C73.1310205,0.255568926 73.0976563,112.414062 77.515625,120.710937 C80.4609375,126.242188 91.3294271,126.242188 110.121094,120.710937 L110.121094,97.8671875 L138.914062,84.21875 L210.28125,97.8671875 L402.886719,97.8671875 L447.378906,120.710937 L447.378906,202.714844 Z" id="Path-2"></path>
            <polyline id="Path-3" points="208.746094 97.9140625 241.291116 117.74198 389.291654 117.74198 401.261719 97.9140625"></polyline>
            <path d="M110,121 L110,201.535156" id="Path-4"></path>
            <path d="M210.582031,97.7382812 L210.582031,201.441406" id="Path-5"></path>
            <path d="M425.140625,109.269531 L425.140625,201.78125" id="Path-6"></path>
        </g>
    </g>
</svg>